<?xml version="1.0" standalone="no"?><!DOCTYPE svg PUBLIC "-//W3C//DTD SVG 1.1//EN" "http://www.w3.org/Graphics/SVG/1.1/DTD/svg11.dtd"><svg class="icon" width="200px" height="200.00px" viewBox="0 0 1024 1024" version="1.1" xmlns="http://www.w3.org/2000/svg"><path fill="#333333" d="M489.264 908.336L157.7728 576.8416c-84.352-84.352-84.352-221.1168 0-305.4704 84.352-84.352 221.1168-84.352 305.4704 0l48.7552 48.7552 48.7584-48.7552c83.5104-83.5088 218.3872-84.344 302.9248-2.5056l2.544 2.5056c84.3552 84.352 84.3552 221.1168 0 305.4704L534.736 908.3344a31.9152 31.9152 0 0 1-22.9104 9.3744h-0.216a31.9104 31.9104 0 0 1-22.3456-9.3744zM512 863.1856l320.2864-320.2848c65.5648-65.5648 65.608-171.84 0.128-237.4592l-2.2512-2.216c-65.824-63.5872-170.6336-62.744-235.4656 2.088l-48.7584 48.7552c-18.744 18.744-49.136 18.744-67.8816 0l-48.7552-48.7568c-65.608-65.608-171.9808-65.608-237.5888 0-65.608 65.608-65.608 171.9808 0 237.5888L512 863.1872z"  /></svg>